<svg xmlns="http://www.w3.org/2000/svg" data-name="레이어 2" viewBox="0 0 159.28 78.65"><path fill="#fff" d="m96.58 0-.44 1.09s1.95 1.74 1.95 4.09c0 1.26-.32 3.15-.95 5.03L83.92 49.38l-5.51-16.83 4.6-13.7 4.52-11.32c1.33-3.34 3.15-5.64 6.63-6.26V0H65.74l-.44 1.09c4.84 0 5.03 2.51 3.46 6.44l-.71 1.77-10.9 27.28H41.59l11.6-29.05c1.21-3.04 2.83-5.22 5.72-6.05-.27-.02-.52-.07-.8-.07V0H31.39l-.44 1.09c4.84 0 5.03 2.51 3.46 6.44L9.02 71.1c-1.57 3.93-3.77 6.44-8.61 6.44l-.44 1.09h30.84l.44-1.09c-4.83 0-5.03-2.51-3.46-6.44L41.01 38h15.56L43.35 71.1c-1.57 3.93-3.77 6.44-8.61 6.44l-.44 1.09h30.84l.44-1.09c-4.83 0-5.03-2.51-3.46-6.44l14.55-36.42 14.79 43.96h2.36l14.95-44.68 15.1 44.68h2.36l23.75-70.63c1.9-4.09 4.57-6.6 9.29-6.6V0H96.58zm33.27 9.28-13.53 40.11-6.29-19.03 7.54-22.34c1.9-4.09 4.57-6.6 9.13-6.6 2.68 0 3.78 1.42 3.78 3.77 0 1.1-.17 2.52-.64 4.09z" data-name="레이어 1"/></svg>